<?xml version="1.0" standalone="no"?><!DOCTYPE svg PUBLIC "-//W3C//DTD SVG 1.1//EN" "http://www.w3.org/Graphics/SVG/1.1/DTD/svg11.dtd"><svg t="1772070635893" class="icon" viewBox="0 0 1024 1024" version="1.1" xmlns="http://www.w3.org/2000/svg" p-id="9454" xmlns:xlink="http://www.w3.org/1999/xlink" width="200" height="200"><path d="M66.064516 66.064516h165.16129v165.16129H66.064516zM792.774194 66.064516h165.16129v165.16129H792.774194zM66.064516 792.774194h165.16129v165.16129H66.064516z" fill="#F9BA48" p-id="9455"></path><path d="M0 0v1024h1024V0H0z m990.967742 990.967742H33.032258V33.032258H990.967742V990.967742z" fill="#333333" p-id="9456"></path><path d="M132.129032 132.129032h33.032258v33.032258H132.129032zM858.83871 132.129032h33.032258v33.032258h-33.032258zM132.129032 858.83871h33.032258v33.032258H132.129032zM132.129032 363.354839h66.064516V330.322581H132.129032v-33.032258h165.161291v66.064516h33.032258v-66.064516h231.225806v66.064516h33.032258v-66.064516h99.096774V264.258065H66.064516v33.032258h33.032258V396.387097H132.129032zM66.064516 396.387097h33.032258v363.354838H66.064516zM132.129032 726.709677h33.032258v33.032258H132.129032zM198.193548 759.741935h165.161291v66.064517h33.032258v-66.064517H528.516129v-33.032258h-99.096774V660.645161H396.387097v66.064516H198.193548zM132.129032 693.677419h33.032258V528.516129h66.064516v-33.032258h-66.064516v-66.064516H132.129032zM165.16129 396.387097h33.032258v33.032258h-33.032258z" fill="#333333" p-id="9457"></path><path d="M198.193548 363.354839h33.032258v33.032258H198.193548zM231.225806 330.322581H264.258065v33.032258h-33.032259zM297.290323 132.129032H396.387097v-33.032258H297.290323V66.064516H264.258065v165.16129h33.032258z" fill="#333333" p-id="9458"></path><path d="M330.322581 165.16129h33.032258v33.032258H330.322581zM363.354839 198.193548h33.032258v33.032258h-33.032258zM396.387097 132.129032h33.032258v33.032258H396.387097zM429.419355 99.096774h33.032258V132.129032h-33.032258zM462.451613 66.064516h33.032258v33.032258h-33.032258zM660.645161 66.064516h99.096774v33.032258H660.645161zM726.709677 132.129032h33.032258v99.096774h-33.032258zM627.612903 132.129032h66.064516v33.032258h-66.064516zM660.645161 198.193548h33.032258v33.032258H660.645161zM594.580645 198.193548h33.032258v33.032258h-33.032258zM594.580645 198.193548v-33.032258H528.516129V132.129032h-33.032258v33.032258h-66.064516v33.032258zM561.548387 132.129032h33.032258v-33.032258h33.032258V66.064516H528.516129v33.032258h33.032258zM264.258065 396.387097h66.064516v33.032258H264.258065zM363.354839 363.354839h66.064516v33.032258h-66.064516zM429.419355 330.322581H528.516129v33.032258h-99.096774zM627.612903 330.322581H792.774194v33.032258h-165.161291zM759.741935 264.258065H792.774194v33.032258h-33.032259zM825.806452 264.258065h132.129032v33.032258h-132.129032zM924.903226 330.322581h33.032258v99.096774H924.903226zM891.870968 429.419355h33.032258v66.064516h-33.032258zM924.903226 495.483871h33.032258v99.096774H924.903226zM924.903226 627.612903h33.032258v66.064516H924.903226zM825.806452 627.612903h66.064516v-66.064516h-33.032258v33.032258h-33.032258zM858.83871 660.645161h33.032258v66.064516h-33.032258zM891.870968 726.709677v33.032258h-66.064516V792.774194H924.903226v-66.064517zM891.870968 957.935484h33.032258V924.903226h33.032258v-33.032258H924.903226v-66.064516h-33.032258zM924.903226 792.774194h33.032258v33.032258H924.903226zM759.741935 924.903226h99.096775v33.032258h-99.096775zM759.741935 858.83871h99.096775v33.032258h-99.096775zM693.677419 891.870968h66.064516v33.032258h-66.064516zM264.258065 792.774194h33.032258v132.129032H264.258065zM198.193548 660.645161H264.258065v33.032258H198.193548zM297.290323 660.645161h66.064516v33.032258h-66.064516zM198.193548 561.548387h33.032258v66.064516H198.193548zM231.225806 429.419355H264.258065v66.064516h-33.032259zM297.290323 462.451613h132.129032v33.032258h-132.129032zM264.258065 528.516129h66.064516v33.032258H264.258065zM363.354839 528.516129h99.096774v33.032258h-99.096774zM330.322581 561.548387h33.032258v66.064516H330.322581zM396.387097 594.580645h66.064516v33.032258H396.387097zM528.516129 396.387097h-33.032258v231.225806H528.516129v-132.129032h99.096774v-33.032258H528.516129zM429.419355 429.419355h33.032258v33.032258h-33.032258z" fill="#333333" p-id="9459"></path><path d="M561.548387 396.387097v33.032258h330.322581V396.387097h-33.032258V330.322581h-33.032258v66.064516zM561.548387 528.516129h33.032258v132.129032h-33.032258zM528.516129 693.677419h99.096774v33.032258H528.516129zM627.612903 660.645161H792.774194v-33.032258h-33.032259v-66.064516h66.064517V528.516129H726.709677v99.096774h-99.096774z" fill="#333333" p-id="9460"></path><path d="M660.645161 495.483871h33.032258v99.096774H660.645161zM693.677419 462.451613H792.774194v33.032258h-99.096775zM660.645161 710.19531h33.032258v148.646923H660.645161zM726.709677 792.774194h99.096775v33.032258H726.709677zM759.741935 693.677419H792.774194v66.064516h-33.032259z" fill="#333333" p-id="9461"></path><path d="M627.612903 759.741935h-33.032258V924.903226h-33.032258v-66.064516H528.516129v66.064516H297.290323v33.032258h396.387096V924.903226h-66.064516z" fill="#333333" p-id="9462"></path><path d="M330.322581 858.83871h99.096774v33.032258H330.322581zM429.419355 825.806452h66.064516v33.032258h-66.064516zM495.483871 792.774194H528.516129v33.032258h-33.032258z" fill="#333333" p-id="9463"></path></svg>